# xmcd
#
# Track frame offsets:
#	150
#	16997
#	30740
#	42270
#	57364
#	67252
#	81215
#	97245
#	112372
#	127285
#	140872
#	152017
#	165140
#	174777
#	188497
#	200897
#
# Disc length: 2878 seconds
#
# Revision: 1
# Processed by: cddbd v1.4PL0 Copyright (c) Steve Scherf et al.
# Submitted via: audiograbber 1.81.02
#
DISCID=ea0b3c10
DTITLE=Ben Steneker - Golden Years
DYEAR=1997
DGENRE=Country
TTITLE0=Colorado
TTITLE1=Golden Years
TTITLE2=Love Lives
TTITLE3=You
TTITLE4=Lonely, Heartbroken and Blue
TTITLE5=Will I get your number
TTITLE6=Angel
TTITLE7=Baby
TTITLE8=Dusty Road
TTITLE9=Rose of my Heart
TTITLE10=Nueva Rosita
TTITLE11=Home Sweet Home
TTITLE12=I Love You
TTITLE13=High Cotton
TTITLE14=Last Train To Love
TTITLE15=Drink Lisa Drink
EXTD=with Sandra vanreys
EXTT0=
EXTT1=
EXTT2=
EXTT3=
EXTT4=
EXTT5=
EXTT6=
EXTT7=
EXTT8=
EXTT9=
EXTT10=
EXTT11=
EXTT12=
EXTT13=
EXTT14=
EXTT15=
PLAYORDER=
